#!OML:ASF H:\Dans Jumps\Project 1\Capture day 1\Session 1\subject.ASF
:FULLY-SPECIFIED
:DEGREES
244
root 0.661561 17.1703 -15.1368 10.6589 -1.90948 -2.23095
lowerback 4.3539 0.0776798 0.72013
upperback 5.2721 0.069345 2.15479
thorax 2.98638 0.0141244 1.81434
lowerneck -14.4961 0.74913 -1.63583
upperneck 24.0053 1.6232 -0.624398
head 10.0229 0.523851 0.264168
rclavicle -6.55989e-015 -4.37326e-015
rhumerus -22.0633 -10.3576 -82.1215
rradius 26.0178
rwrist 29.5701
rhand -20.8085 -26.7457
rfingers 7.12502
rthumb 5.55926 -56.6528
lclavicle -6.55989e-015 -4.37326e-015
lhumerus -20.2077 -6.4024 89.1924
lradius 22.1476
lwrist 8.69958
lhand -26.442 -3.7793
lfingers 7.12502
lthumb 0.11887 26.2004
rfemur -29.2299 -2.36238 20.5346
rtibia 34.9007
rfoot -15.3395 -3.50253
rtoes 6.99756
lfemur -28.2447 8.03552 -17.9215
ltibia 35.0424
lfoot -14.3327 7.46011
ltoes -2.54245
245
root 0.6619 17.1442 -15.1698 10.9131 -1.91255 -2.22228
lowerback 4.62108 0.0821922 0.695815
upperback 5.34524 0.0786031 2.14798
thorax 2.91279 0.0178824 1.82062
lowerneck -14.5695 0.752311 -1.62635
upperneck 23.6252 1.6262 -0.646114
head 9.90109 0.527734 0.254428
rclavicle 5.56597e-015 8.74653e-015
rhumerus -22.1646 -10.5378 -81.9957
rradius 25.9274
rwrist 29.6378
rhand -20.7806 -26.7628
rfingers 7.12502
rthumb 5.5862 -56.6692
lclavicle 5.56597e-015 8.74653e-015
lhumerus -20.273 -6.26436 89.0869
lradius 22.0655
lwrist 8.74685
lhand -26.5098 -3.71666
lfingers 7.12502
lthumb 0.053345 26.2631
rfemur -30.0162 -2.35079 20.5503
rtibia 35.5983
rfoot -15.5181 -3.57175
rtoes 6.88252
lfemur -29.0329 8.12067 -17.9972
ltibia 35.7322
lfoot -14.5259 7.45543
ltoes -2.60129
246
root 0.662236 17.1173 -15.2026 11.1716 -1.90733 -2.21599
lowerback 4.89097 0.083539 0.67911
upperback 5.41493 0.0838571 2.14022
thorax 2.83437 0.0199428 1.8217
lowerneck -14.6375 0.755547 -1.6165
upperneck 23.2392 1.62866 -0.667134
head 9.77681 0.531587 0.244795
rclavicle 7.95139e-016 7.55382e-015
rhumerus -22.2789 -10.7323 -81.8667
rradius 25.8308
rwrist 29.7324
rhand -20.7518 -26.7664
rfingers 7.12502
rthumb 5.61402 -56.672
lclavicle 7.95139e-016 7.55382e-015
lhumerus -20.3386 -6.09831 88.9743
lradius 21.9611
lwrist 8.72359
lhand -26.5471 -3.62729
lfingers 7.12502
lthumb 0.0173658 26.3525
rfemur -30.8083 -2.34113 20.5692
rtibia 36.2989
rfoot -15.7015 -3.64873
rtoes 6.76401
lfemur -29.8335 8.19717 -18.0708
ltibia 36.4322
lfoot -14.7222 7.45174
ltoes -2.6513
247
root 0.66246 17.0893 -15.2354 11.4356 -1.89503 -2.21187
lowerback 5.16278 0.0829263 0.667399
upperback 5.48099 0.0866709 2.13226
thorax 2.75134 0.0209819 1.8198
lowerneck -14.7014 0.759696 -1.602
upperneck 22.8432 1.63199 -0.69263
head 9.64896 0.535872 0.232921
rclavicle -1.05356e-014 -3.57812e-015
rhumerus -22.4064 -10.9341 -81.7351
rradius 25.7322
rwrist 29.8443
rhand -20.7307 -26.7481
rfingers 7.12502
rthumb 5.63437 -56.6532
lclavicle -1.05356e-014 -3.57812e-015
lhumerus -20.4084 -5.90837 88.8551
lradius 21.8457
lwrist 8.64819
lhand -26.5551 -3.52424
lfingers 7.12502
lthumb 0.00962542 26.4555
rfemur -31.6081 -2.32831 20.5902
rtibia 37.0029
rfoot -15.8879 -3.73535
rtoes 6.64239
lfemur -30.6478 8.26593 -18.1426
ltibia 37.1419
lfoot -14.9203 7.45137
ltoes -2.69092
248
root 0.662889 17.0604 -15.2678 11.6995 -1.87911 -2.21349
lowerback 5.4367 0.0811531 0.665745
upperback 5.54752 0.0881781 2.12572
thorax 2.66788 0.0216755 1.81378
lowerneck -14.7655 0.764806 -1.59314
upperneck 22.4355 1.63681 -0.714223
head 9.51768 0.540954 0.223543
rclavicle 3.57812e-015 -9.14409e-015
rhumerus -22.5435 -11.1288 -81.6008
rradius 25.6373
rwrist 29.9582
rhand -20.7011 -26.7345
rfingers 7.12502
rthumb 5.66296 -56.6388
lclavicle 3.57812e-015 -9.14409e-015
lhumerus -20.4792 -5.70229 88.7327
lradius 21.7225
lwrist 8.53937
lhand -26.4986 -3.37644
lfingers 7.12502
lthumb 0.0642158 26.6033
rfemur -32.4076 -2.31555 20.6157
rtibia 37.7103
rfoot -16.0799 -3.82209
rtoes 6.53077
lfemur -31.4666 8.32923 -18.2095
ltibia 37.8608
lfoot -15.1217 7.45653
ltoes -2.72113
249
root 0.66339 17.0304 -15.2996 11.9644 -1.86078 -2.22107
lowerback 5.71058 0.0791326 0.671443
upperback 5.61161 0.0895966 2.12167
thorax 2.5821 0.0225285 1.80622
lowerneck -14.8266 0.770125 -1.58334
upperneck 22.0201 1.64196 -0.738246
head 9.38385 0.546122 0.213208
rclavicle -3.37934e-015 3.57812e-015
rhumerus -22.6908 -11.3195 -81.4626
rradius 25.5385
rwrist 30.0701
rhand -20.67 -26.722
rfingers 7.12502
rthumb 5.69293 -56.6255
lclavicle -3.37934e-015 3.57812e-015
lhumerus -20.5602 -5.48963 88.6119
lradius 21.5981
lwrist 8.41301
lhand -26.4049 -3.21613
lfingers 7.12502
lthumb 0.154675 26.7636
rfemur -33.2077 -2.29893 20.6455
rtibia 38.4216
rfoot -16.278 -3.91136
rtoes 6.43171
lfemur -32.2888 8.38968 -18.2712
ltibia 38.5866
lfoot -15.3285 7.4661
ltoes -2.7396
250
root 0.663839 16.9994 -15.3307 12.2305 -1.84757 -2.23592
lowerback 5.98243 0.0793844 0.681076
upperback 5.67267 0.0941742 2.12021
thorax 2.49442 0.0250399 1.79904
lowerneck -14.8782 0.77394 -1.57958
upperneck 21.5961 1.64429 -0.754921
head 9.24588 0.550457 0.206024
rclavicle -1.19271e-015 -1.47101e-014
rhumerus -22.8574 -11.4925 -81.3226
rradius 25.4475
rwrist 30.168
rhand -20.6222 -26.7226
rfingers 7.12502
rthumb 5.73907 -56.6249
lclavicle -1.19271e-015 -1.47101e-014
lhumerus -20.6586 -5.2728 88.495
lradius 21.4779
lwrist 8.27761
lhand -26.2879 -3.0468
lfingers 7.12502
lthumb 0.267654 26.9328
rfemur -34.008 -2.27066 20.6798
rtibia 39.1365
rfoot -16.4821 -3.99944
rtoes 6.36827
lfemur -33.1115 8.45397 -18.3266
ltibia 39.3168
lfoot -15.5397 7.4801
ltoes -2.74257
